<?xml version="1.0" standalone="no"?>
<!DOCTYPE svg PUBLIC "-//W3C//DTD SVG 20010904//EN"
 "http://www.w3.org/TR/2001/REC-SVG-20010904/DTD/svg10.dtd">
<svg version="1.0" xmlns="http://www.w3.org/2000/svg"
 width="992.000000pt" height="992.000000pt" viewBox="0 0 992.000000 992.000000"
 preserveAspectRatio="xMidYMid meet">
<metadata>
Created by potrace 1.11, written by Peter Selinger 2001-2013
</metadata>
<g transform="translate(0.000000,992.000000) scale(0.100000,-0.100000)"
fill="#000000" stroke="none">
<path d="M988 9010 c-57 -22 -96 -49 -138 -96 -59 -68 -72 -119 -75 -307 -1
-73 -3 -134 -4 -137 -2 -9 -145 -5 -160 5 -9 5 -12 4 -8 -2 8 -13 -92 -11
-113 2 -9 5 -11 4 -6 -3 5 -8 0 -11 -16 -8 -13 2 -31 0 -40 -5 -11 -6 -18 -5
-21 4 -4 9 -6 9 -6 0 -1 -7 -9 -13 -18 -13 -10 0 -33 -9 -51 -20 -17 -11 -32
-16 -32 -12 0 4 -5 -1 -11 -10 -5 -10 -17 -18 -26 -18 -9 0 -14 -3 -10 -6 10
-11 -37 -55 -53 -49 -11 5 -12 3 -3 -6 12 -12 -2 -59 -18 -59 -5 0 -6 -7 -3
-15 4 -8 2 -15 -3 -15 -5 0 -9 -10 -8 -22 1 -13 -2 -38 -6 -56 -4 -17 -3 -35
2 -38 5 -3 6 -11 2 -17 -11 -18 -12 -36 -2 -42 4 -3 5 -16 1 -28 -10 -27 -9
-68 1 -84 5 -7 5 -13 0 -13 -4 0 -8 -16 -8 -35 0 -19 4 -35 9 -35 5 0 4 -6 -1
-12 -11 -15 -11 -28 0 -45 5 -7 4 -13 0 -13 -12 0 -10 -63 2 -72 7 -5 7 -8 0
-8 -11 0 -11 -62 0 -79 3 -6 2 -11 -2 -11 -5 0 -9 -11 -9 -25 0 -14 4 -25 9
-25 6 0 6 -5 0 -12 -7 -11 -8 -46 -3 -123 1 -5 -1 -22 -3 -37 -2 -16 -1 -28 2
-28 4 0 6 -15 4 -32 -4 -31 -4 -38 -2 -70 0 -7 -2 -25 -4 -40 -3 -16 0 -28 7
-28 7 0 8 -3 1 -8 -12 -8 -13 -22 -2 -39 4 -6 3 -14 -2 -17 -8 -5 -8 -27 -1
-46 1 -3 1 -9 0 -15 -6 -32 -6 -87 2 -91 4 -3 6 -10 2 -15 -10 -17 -11 -69 -1
-69 5 0 3 -7 -4 -17 -14 -17 -14 -20 3 -40 6 -7 6 -13 1 -13 -12 0 -11 -63 2
-72 7 -5 7 -8 0 -8 -11 0 -11 -62 0 -79 3 -6 2 -11 -2 -11 -5 0 -9 -11 -9 -25
0 -14 4 -25 9 -25 6 0 6 -5 0 -12 -7 -11 -8 -46 -3 -123 1 -5 -1 -22 -3 -37
-2 -16 -1 -28 2 -28 4 0 6 -15 4 -32 -4 -31 -4 -38 -2 -70 0 -7 -2 -25 -4 -40
-3 -16 0 -28 7 -28 7 0 8 -3 1 -8 -12 -8 -13 -22 -2 -39 4 -6 3 -14 -2 -17 -8
-5 -8 -27 -1 -46 1 -3 1 -9 0 -15 -6 -32 -6 -87 2 -91 4 -3 6 -10 2 -15 -10
-17 -11 -69 -1 -69 6 0 6 -5 0 -12 -11 -15 -11 -28 0 -45 5 -7 4 -13 0 -13
-12 0 -10 -63 2 -72 7 -5 7 -8 0 -8 -11 0 -11 -62 0 -79 3 -6 2 -11 -2 -11 -5
0 -9 -11 -9 -25 0 -14 4 -25 9 -25 6 0 6 -5 0 -12 -7 -11 -8 -46 -3 -123 1 -5
-1 -22 -3 -37 -2 -16 -1 -28 2 -28 4 0 6 -15 4 -32 -4 -31 -4 -38 -2 -70 0 -7
-2 -25 -4 -40 -3 -16 0 -28 7 -28 7 0 8 -3 1 -8 -12 -8 -13 -22 -2 -39 4 -6 3
-14 -2 -17 -8 -5 -8 -27 -1 -46 1 -3 1 -9 0 -15 -6 -32 -6 -87 2 -91 4 -3 6
-10 2 -15 -10 -17 -11 -69 -1 -69 6 0 6 -5 0 -12 -11 -15 -11 -28 0 -45 5 -7
4 -13 0 -13 -12 0 -10 -63 2 -72 7 -5 7 -8 0 -8 -11 0 -11 -62 0 -79 3 -6 2
-11 -2 -11 -5 0 -9 -11 -9 -25 0 -14 4 -25 9 -25 6 0 6 -5 0 -12 -7 -11 -8
-46 -3 -123 1 -5 -1 -22 -3 -37 -2 -16 -1 -28 2 -28 4 0 6 -15 4 -32 -4 -31
-4 -38 -2 -70 0 -7 -2 -25 -4 -40 -3 -16 0 -28 7 -28 7 0 8 -3 1 -8 -12 -8
-13 -22 -2 -39 4 -6 3 -14 -2 -17 -8 -5 -8 -27 -1 -46 1 -3 1 -9 0 -15 -6 -32
-6 -87 2 -91 4 -3 6 -10 2 -15 -10 -17 -11 -69 -1 -69 6 0 6 -5 0 -12 -11 -15
-11 -28 0 -45 5 -7 4 -13 0 -13 -12 0 -10 -63 2 -72 7 -5 7 -8 0 -8 -11 0 -11
-62 0 -79 3 -6 2 -11 -2 -11 -5 0 -9 -11 -9 -25 0 -14 4 -25 9 -25 6 0 6 -5 0
-12 -7 -11 -8 -46 -3 -123 1 -5 -1 -22 -3 -37 -2 -16 -1 -28 2 -28 4 0 6 -15
4 -32 -4 -31 -4 -38 -2 -70 0 -7 -2 -25 -4 -40 -3 -16 0 -28 7 -28 7 0 8 -3 1
-8 -12 -8 -13 -22 -2 -39 4 -6 3 -14 -2 -17 -8 -5 -8 -27 -1 -46 1 -3 1 -9 0
-15 -6 -32 -6 -87 2 -91 4 -3 6 -10 2 -15 -10 -17 -11 -69 -1 -69 6 0 6 -5 0
-12 -11 -15 -11 -28 0 -45 5 -7 4 -13 0 -13 -12 0 -10 -63 2 -72 7 -5 7 -8 0
-8 -11 0 -11 -62 0 -79 3 -6 2 -11 -2 -11 -5 0 -9 -11 -9 -25 0 -14 4 -25 9
-25 6 0 6 -5 0 -12 -7 -11 -8 -46 -3 -123 1 -5 -1 -22 -3 -38 -2 -15 -1 -27 2
-27 4 0 6 -15 4 -32 -4 -31 -4 -38 -2 -70 0 -7 -2 -25 -4 -40 -3 -16 0 -28 7
-28 7 0 8 -3 1 -8 -12 -8 -13 -22 -2 -39 4 -6 3 -14 -2 -17 -10 -6 -9 -31 1
-42 4 -3 3 -16 -1 -28 -8 -24 -7 -93 2 -102 3 -3 2 -17 -3 -30 -6 -15 -6 -26
1 -30 6 -3 9 -15 6 -25 -3 -11 1 -26 9 -33 8 -8 14 -24 14 -35 0 -12 5 -21 10
-21 6 0 10 -5 10 -10 0 -13 90 -106 90 -94 0 5 4 4 8 -2 11 -16 76 -43 110
-46 18 -1 32 -6 32 -11 0 -5 7 -4 16 4 13 10 17 10 25 -2 5 -8 9 -9 9 -4 0 6
9 11 20 11 11 0 20 -4 20 -9 0 -4 5 -5 11 -2 18 12 59 13 59 1 0 -7 3 -7 8 -1
8 12 101 13 120 2 6 -5 12 -5 12 0 0 12 194 10 202 -2 5 -6 8 -5 8 4 0 11 3
11 15 1 12 -10 15 -10 15 0 0 10 3 10 15 0 8 -7 15 -9 15 -4 0 5 27 9 60 9 33
0 60 -4 60 -8 0 -5 6 -5 13 0 17 11 31 10 39 -2 5 -6 8 -5 8 4 0 11 3 11 15 1
8 -7 15 -8 15 -3 0 5 9 9 20 9 11 0 20 -5 20 -11 0 -5 5 -3 10 5 9 13 10 13
10 0 0 -9 3 -11 8 -5 9 13 42 16 42 4 0 -6 8 -5 19 1 13 7 22 7 26 0 3 -5 11
-10 16 -10 6 0 8 4 5 8 -6 11 34 9 52 -1 7 -5 12 -3 12 4 0 8 4 8 15 -1 8 -7
15 -9 15 -4 0 11 181 11 198 0 7 -4 12 -4 12 1 0 4 45 8 100 8 55 0 100 -4
100 -9 0 -5 7 -3 15 4 11 9 15 9 15 1 0 -7 5 -9 12 -4 18 11 32 10 40 -2 5 -6
8 -5 8 4 0 11 3 11 15 1 9 -7 15 -8 15 -2 0 12 32 11 41 -2 4 -5 13 -5 20 0
18 11 129 12 122 1 -3 -5 3 -4 14 2 14 7 23 7 31 -1 9 -9 12 -9 12 -1 0 12 18
12 38 0 7 -5 12 -3 12 4 0 8 3 9 13 0 8 -6 17 -8 21 -4 10 10 46 11 40 1 -6
-10 10 -11 20 -1 9 9 125 10 120 1 -3 -4 6 -4 20 2 18 6 26 6 26 -1 0 -6 5 -7
13 -2 17 11 31 10 39 -2 5 -6 8 -5 8 4 0 11 3 11 15 1 9 -7 15 -8 15 -2 0 12
32 11 41 -2 4 -5 13 -5 20 0 18 11 129 12 122 1 -3 -5 3 -4 14 2 14 7 23 7 31
-1 9 -9 12 -9 12 -1 0 12 18 12 38 0 7 -5 12 -3 12 4 0 8 3 9 13 0 8 -6 17 -8
21 -4 10 10 46 11 40 1 -3 -4 -1 -8 5 -8 5 0 12 3 14 8 6 9 229 8 245 -2 7 -4
12 -4 12 1 0 12 194 10 202 -2 5 -6 8 -5 8 4 0 11 3 11 15 1 12 -10 15 -10 15
0 0 10 3 10 15 0 8 -7 15 -9 15 -4 0 5 27 9 60 9 33 0 60 -4 60 -8 0 -5 6 -5
13 0 17 11 31 10 39 -2 5 -6 8 -5 8 4 0 11 3 11 15 1 8 -7 15 -8 15 -3 0 5 9
9 20 9 11 0 20 -5 20 -11 0 -5 5 -3 10 5 9 13 10 13 10 0 0 -9 3 -11 8 -5 9
13 42 16 42 4 0 -6 8 -5 19 1 13 7 22 7 26 0 3 -5 11 -10 16 -10 6 0 8 4 5 8
-6 11 34 9 52 -1 7 -5 12 -3 12 4 0 8 4 8 15 -1 8 -7 15 -9 15 -4 0 11 181 11
198 0 7 -4 12 -4 12 1 0 4 45 8 100 8 55 0 100 -4 100 -9 0 -5 7 -3 15 4 11 9
15 9 15 1 0 -7 5 -9 12 -4 18 11 32 10 40 -2 5 -6 8 -5 8 4 0 11 3 11 15 1 9
-7 15 -8 15 -2 0 12 32 11 41 -2 4 -5 13 -5 20 0 18 11 129 12 122 1 -3 -5 3
-4 14 2 14 7 23 7 31 -1 9 -9 12 -9 12 -1 0 12 18 12 38 0 7 -5 12 -3 12 4 0
8 3 9 13 0 8 -6 17 -8 21 -4 10 10 46 11 40 1 -6 -10 10 -11 20 -1 9 9 125 10
120 1 -3 -4 6 -4 20 2 18 7 26 6 26 -1 0 -8 4 -8 13 -1 18 15 29 15 38 0 7
-11 9 -11 9 1 0 11 3 11 15 1 9 -7 15 -8 15 -2 0 12 32 11 41 -2 4 -5 13 -5
20 0 18 11 129 12 122 1 -3 -5 3 -4 14 2 14 7 23 7 31 -1 9 -9 12 -9 12 -1 0
12 18 12 38 0 7 -5 12 -3 12 4 0 8 3 9 13 0 8 -6 17 -8 21 -4 10 10 46 11 40
1 -3 -4 -1 -8 5 -8 5 0 12 3 14 8 6 9 229 8 245 -2 7 -4 12 -4 12 1 0 12 194
10 202 -2 5 -6 8 -5 8 4 0 11 3 11 15 1 12 -10 15 -10 15 0 0 10 3 10 15 0 8
-7 15 -9 15 -4 0 5 27 9 60 9 33 0 60 -4 60 -9 0 -5 7 -2 17 5 19 16 23 16 34
-3 7 -11 9 -11 9 1 0 11 3 11 15 1 8 -7 15 -8 15 -3 0 5 9 9 20 9 11 0 20 -5
20 -11 0 -5 5 -3 10 5 9 13 10 13 10 0 0 -9 3 -11 8 -5 9 13 42 16 42 4 0 -6
8 -5 19 1 13 7 22 7 26 0 3 -5 11 -10 16 -10 6 0 8 4 5 8 -6 11 34 9 52 -1 7
-5 12 -3 12 4 0 8 4 8 15 -1 8 -7 15 -9 15 -4 0 11 181 11 198 0 7 -4 12 -4
12 1 0 4 45 8 100 8 55 0 100 -4 100 -9 0 -5 7 -3 15 4 12 10 15 10 15 0 0 -9
4 -9 17 1 19 16 23 16 34 -3 7 -11 9 -11 9 1 0 11 3 11 15 1 9 -7 15 -8 15 -2
0 12 32 11 41 -2 4 -5 13 -5 20 0 17 10 109 12 116 2 2 -5 13 -3 24 2 13 8 19
7 19 0 0 -6 5 -8 12 -3 17 10 108 10 108 0 0 -5 6 -5 13 0 19 12 37 12 37 0 0
-8 3 -8 11 0 12 12 59 -3 59 -19 0 -4 8 -8 17 -8 9 0 14 -3 10 -6 -8 -8 16
-33 26 -27 4 2 7 0 7 -6 0 -5 9 -13 20 -16 11 -4 18 -11 15 -16 -4 -5 -1 -9 5
-9 6 0 17 -6 25 -12 7 -7 30 -27 51 -45 83 -67 83 -67 174 -143 19 -16 38 -30
43 -30 4 0 7 -7 7 -16 0 -8 4 -13 8 -10 5 3 30 -14 55 -38 26 -24 47 -42 47
-39 0 2 6 -1 13 -7 78 -66 104 -88 119 -103 10 -9 21 -17 24 -17 4 0 20 -13
35 -30 16 -16 29 -27 29 -23 0 4 8 -2 18 -13 10 -10 34 -30 53 -44 18 -14 43
-35 55 -47 12 -13 27 -23 33 -23 7 0 9 -5 6 -10 -3 -6 1 -10 9 -10 9 0 21 -9
28 -20 7 -11 17 -20 21 -20 15 0 38 -30 32 -40 -3 -6 1 -7 10 -4 9 4 23 -2 34
-15 10 -11 24 -21 31 -21 7 0 10 -7 7 -14 -4 -10 -1 -13 8 -9 8 3 18 -2 21
-11 3 -9 10 -14 14 -11 5 3 11 -4 15 -15 4 -11 11 -18 16 -15 5 4 12 -1 15 -9
3 -9 13 -16 21 -16 8 0 12 -4 8 -9 -3 -5 3 -12 14 -16 33 -10 46 -32 30 -53
-12 -15 -11 -15 8 1 21 18 22 18 35 -2 7 -12 18 -21 25 -21 6 0 19 -10 27 -22
9 -12 16 -19 16 -15 0 4 12 1 28 -7 16 -8 52 -13 92 -12 72 2 88 5 109 24 7 7
20 11 27 8 8 -3 13 -2 11 2 -1 4 6 18 16 32 9 13 17 20 17 15 1 -10 33 42 36
58 1 4 2 8 4 10 14 18 22 614 8 633 -4 6 -2 11 7 11 8 0 15 -4 15 -9 0 -4 5
-8 11 -8 16 0 39 -26 31 -35 -4 -5 -2 -5 4 -2 6 3 20 -1 30 -11 11 -9 42 -35
69 -57 27 -22 57 -47 65 -55 46 -45 146 -66 216 -45 57 17 108 55 142 108 l27
42 0 3690 0 3690 -29 56 c-42 83 -108 137 -205 168 -24 8 -1288 11 -4340 10
-4099 -1 -4308 -2 -4353 -19z"/>
</g>
</svg>
